REM DIRINDEX 1\2,1\3,1\4,1\5
REM DIRNAME cjc005,folder01,folder02,folder03,folder04
TITLE ""
FILE "P1Q_t_0983-0992.mp3" MP3
  TRACK 01 AUDIO
    TITLE "3:cjc005_3854"
    INDEX 01 00:00:00
  TRACK 02 AUDIO
    TITLE "0:"
    INDEX 01 00:01:05
  TRACK 03 AUDIO
    TITLE "4:cjc005_3855"
    INDEX 01 00:01:36
  TRACK 04 AUDIO
    TITLE "0:"
    INDEX 01 00:03:17
  TRACK 05 AUDIO
    TITLE "5:cjc005_3856"
    INDEX 01 00:03:41
  TRACK 06 AUDIO
    TITLE "0:"
    INDEX 01 00:07:47
  TRACK 07 AUDIO
    TITLE "3:cjc005_3857"
    INDEX 01 00:08:26
  TRACK 08 AUDIO
    TITLE "0:"
    INDEX 01 00:09:61
  TRACK 09 AUDIO
    TITLE "4:cjc005_3858"
    INDEX 01 00:10:14
  TRACK 10 AUDIO
    TITLE "0:"
    INDEX 01 00:11:23
  TRACK 11 AUDIO
    TITLE "5:cjc005_3859"
    INDEX 01 00:11:48
  TRACK 12 AUDIO
    TITLE "0:"
    INDEX 01 00:16:10
  TRACK 13 AUDIO
    TITLE "3:cjc005_3860"
    INDEX 01 00:16:71
  TRACK 14 AUDIO
    TITLE "0:"
    INDEX 01 00:18:17
  TRACK 15 AUDIO
    TITLE "4:cjc005_3861"
    INDEX 01 00:18:46
  TRACK 16 AUDIO
    TITLE "0:"
    INDEX 01 00:19:73
  TRACK 17 AUDIO
    TITLE "5:cjc005_3862"
    INDEX 01 00:20:30
  TRACK 18 AUDIO
    TITLE "0:"
    INDEX 01 00:24:33
  TRACK 19 AUDIO
    TITLE "3:cjc005_3863"
    INDEX 01 00:25:11
  TRACK 20 AUDIO
    TITLE "0:"
    INDEX 01 00:26:17
  TRACK 21 AUDIO
    TITLE "4:cjc005_3864"
    INDEX 01 00:26:42
  TRACK 22 AUDIO
    TITLE "0:"
    INDEX 01 00:27:61
  TRACK 23 AUDIO
    TITLE "5:cjc005_3865"
    INDEX 01 00:28:10
  TRACK 24 AUDIO
    TITLE "0:"
    INDEX 01 00:31:14
  TRACK 25 AUDIO
    TITLE "3:cjc005_3866"
    INDEX 01 00:31:67
  TRACK 26 AUDIO
    TITLE "0:"
    INDEX 01 00:33:13
  TRACK 27 AUDIO
    TITLE "4:cjc005_3867"
    INDEX 01 00:33:42
  TRACK 28 AUDIO
    TITLE "0:"
    INDEX 01 00:34:61
  TRACK 29 AUDIO
    TITLE "5:cjc005_3868"
    INDEX 01 00:35:12
  TRACK 30 AUDIO
    TITLE "0:"
    INDEX 01 00:39:13
  TRACK 31 AUDIO
    TITLE "3:cjc005_3869"
    INDEX 01 00:39:68
  TRACK 32 AUDIO
    TITLE "0:"
    INDEX 01 00:41:10
  TRACK 33 AUDIO
    TITLE "4:cjc005_3870"
    INDEX 01 00:41:40
  TRACK 34 AUDIO
    TITLE "0:"
    INDEX 01 00:42:68
  TRACK 35 AUDIO
    TITLE "5:cjc005_3871"
    INDEX 01 00:43:17
  TRACK 36 AUDIO
    TITLE "0:"
    INDEX 01 00:47:05
  TRACK 37 AUDIO
    TITLE "3:cjc005_3872"
    INDEX 01 00:47:50
  TRACK 38 AUDIO
    TITLE "0:"
    INDEX 01 00:48:67
  TRACK 39 AUDIO
    TITLE "4:cjc005_3873"
    INDEX 01 00:49:23
  TRACK 40 AUDIO
    TITLE "0:"
    INDEX 01 00:51:18
  TRACK 41 AUDIO
    TITLE "5:cjc005_3874"
    INDEX 01 00:51:42
  TRACK 42 AUDIO
    TITLE "0:"
    INDEX 01 00:55:59
  TRACK 43 AUDIO
    TITLE "3:cjc005_3875"
    INDEX 01 00:56:35
  TRACK 44 AUDIO
    TITLE "0:"
    INDEX 01 00:57:52
  TRACK 45 AUDIO
    TITLE "4:cjc005_3876"
    INDEX 01 00:58:01
  TRACK 46 AUDIO
    TITLE "0:"
    INDEX 01 00:59:20
  TRACK 47 AUDIO
    TITLE "5:cjc005_3877"
    INDEX 01 00:59:41
  TRACK 48 AUDIO
    TITLE "0:"
    INDEX 01 01:03:59
  TRACK 49 AUDIO
    TITLE "3:cjc005_3878"
    INDEX 01 01:04:33
  TRACK 50 AUDIO
    TITLE "0:"
    INDEX 01 01:05:50
  TRACK 51 AUDIO
    TITLE "4:cjc005_3879"
    INDEX 01 01:06:00
  TRACK 52 AUDIO
    TITLE "0:"
    INDEX 01 01:07:55
  TRACK 53 AUDIO
    TITLE "5:cjc005_3880"
    INDEX 01 01:08:07
  TRACK 54 AUDIO
    TITLE "0:"
    INDEX 01 01:12:36
  TRACK 55 AUDIO
    TITLE "3:cjc005_3881"
    INDEX 01 01:13:12
  TRACK 56 AUDIO
    TITLE "0:"
    INDEX 01 01:14:31
  TRACK 57 AUDIO
    TITLE "4:cjc005_3882"
    INDEX 01 01:14:63
  TRACK 58 AUDIO
    TITLE "0:"
    INDEX 01 01:16:22
  TRACK 59 AUDIO
    TITLE "5:cjc005_3883"
    INDEX 01 01:16:44
  TRACK 60 AUDIO
    TITLE "0:"
    INDEX 01 01:21:08
